<svg width="23" height="16" viewBox="0 0 23 16" fill="none" xmlns="http://www.w3.org/2000/svg">
<path d="M1.15763 6.98633C0.605343 6.98557 0.157012 7.43267 0.156251 7.98495C0.15549 8.53724 0.602589 8.98557 1.15487 8.98633L1.15763 6.98633ZM21.9914 8.72213C22.3825 8.33214 22.3833 7.69898 21.9933 7.30792L15.6382 0.935198C15.2482 0.544136 14.615 0.543264 14.2239 0.93325C13.8329 1.32324 13.832 1.9564 14.222 2.34746L19.8711 8.0121L14.2064 13.6612C13.8153 14.0511 13.8145 14.6843 14.2045 15.0754C14.5944 15.4664 15.2276 15.4673 15.6187 15.0773L21.9914 8.72213ZM1.15487 8.98633L21.2839 9.01405L21.2866 7.01405L1.15763 6.98633L1.15487 8.98633Z" fill="#232536"/>
</svg>
