<svg width="28" height="16" viewBox="0 0 28 16" fill="none" xmlns="http://www.w3.org/2000/svg">
<path d="M27.0093 8.87984C27.5615 8.87473 28.0051 8.42289 28 7.87062C27.9948 7.31836 27.543 6.87481 26.9907 6.87993L27.0093 8.87984ZM0.287491 7.42006C-0.0994007 7.81419 -0.0935388 8.44732 0.300584 8.83422L6.72319 15.139C7.11731 15.5259 7.75045 15.52 8.13734 15.1259C8.52424 14.7318 8.51837 14.0986 8.12425 13.7117L2.41527 8.1075L8.01951 2.39852C8.4064 2.00439 8.40054 1.37126 8.00641 0.984364C7.61229 0.597472 6.97915 0.603333 6.59226 0.997456L0.287491 7.42006ZM26.9907 6.87993L0.991856 7.12064L1.01037 9.12055L27.0093 8.87984L26.9907 6.87993Z" fill="#F4F4F4"/>
</svg>
